<svg width="76" height="76" viewBox="0 0 76 76" fill="none" xmlns="http://www.w3.org/2000/svg">
<g clip-path="url(#clip0_2801_398)">
<path d="M74.2432 15.9588C73.8304 15.2971 73.1166 14.9022 72.3357 14.9022H57.924C56.4994 6.45875 49.1542 0.000244141 40.3114 0.000244141C30.4508 0.000244141 22.429 8.02197 22.429 17.8826C22.429 26.3424 28.6014 31.2467 30.9247 33.093C31.0871 33.2227 31.2331 33.3374 31.3568 33.4373C31.2957 34.4193 31.0066 36.6188 29.6222 37.589C28.6297 38.2864 27.1098 38.2893 25.1084 37.5919C23.35 36.9795 21.6914 35.9021 20.1788 34.388L11.3226 25.5318C10.6833 24.8955 9.81751 24.5646 8.90402 24.6317C8.00245 24.6988 7.1754 25.1548 6.63445 25.885C4.33359 28.9935 0.618533 35.5936 1.5663 44.7389C1.57226 44.9937 1.73469 51.0722 4.01022 57.8601C7.08896 67.0427 12.5937 73.0437 19.927 75.2149C21.7078 75.7439 23.6659 76.0002 25.9131 76.0002H36.1329C40.7033 76.0002 45.1232 74.6769 48.9128 72.1749L49.2973 71.9201C59.9313 64.7701 63.7775 51.1006 58.2444 40.1238C56.6037 36.8692 54.3446 34.2762 51.5147 32.4016C52.0825 31.6922 52.7545 30.8071 53.449 29.8042H61.4051C63.171 29.8042 64.8058 29.3497 66.135 28.4928C70.1526 25.8984 73.0108 20.8853 74.3579 18.127C74.6977 17.4281 74.6559 16.6174 74.2432 15.9588ZM55.5844 41.465C60.4425 51.1035 57.0254 63.1339 47.5836 69.4806L47.2736 69.6878C43.9698 71.8679 40.1177 73.0199 36.1329 73.0199H25.9131C23.9565 73.0199 22.277 72.8023 20.7734 72.3582C5.2754 67.7684 4.55265 44.9013 4.53924 44.5526C3.68685 36.288 6.98763 30.4196 9.03069 27.6583L7.83257 26.7716L9.21547 27.6389L18.0717 36.4937C19.9032 38.3281 21.9417 39.6439 24.1264 40.4054C27.0859 41.4366 29.5075 41.3085 31.3345 40.0269C34.0064 38.1522 34.3342 34.5415 34.3506 33.0841C34.361 32.4925 34.1301 31.9396 33.7024 31.5298C33.5057 31.3421 33.1868 31.0842 32.777 30.7579C30.5715 29.0054 25.4079 24.9029 25.4079 17.8811C25.4079 9.66417 32.093 2.97915 40.3099 2.97915C47.968 2.97915 54.2894 8.78793 55.115 16.23L55.1418 16.5265C55.1821 16.9736 55.2119 17.4236 55.2119 17.8811C55.2119 18.3416 55.1552 18.8259 55.0718 19.3191C55.0569 19.4086 55.0435 19.4965 55.0256 19.5874C54.8229 20.6305 54.4608 21.7303 53.975 22.8509C53.9661 22.8718 53.9571 22.8926 53.9482 22.9135C53.4475 24.0565 52.8261 25.2144 52.1361 26.3439C52.078 26.4378 52.0154 26.5332 51.9558 26.6286C50.9201 28.2901 49.7503 29.8817 48.6029 31.2511C48.2035 31.7265 48.0351 32.3494 48.1394 32.9589C48.2452 33.5803 48.6207 34.1213 49.1691 34.4461C51.8887 36.054 54.048 38.4145 55.5844 41.465ZM64.5196 25.9878C63.6732 26.5347 62.5958 26.8238 61.4051 26.8238H55.3266C55.5457 26.4363 55.7573 26.0414 55.9629 25.6391C55.9853 25.5973 56.0061 25.5556 56.027 25.5139C56.1879 25.1965 56.3429 24.8746 56.4919 24.5497C56.5337 24.4573 56.5784 24.365 56.6186 24.274C56.7348 24.0133 56.8436 23.7525 56.9494 23.4887C56.9986 23.3665 57.0523 23.2443 57.0985 23.1236C57.1819 22.906 57.2564 22.687 57.3324 22.4679C57.3831 22.3189 57.4412 22.1684 57.4874 22.0224C57.5261 21.9031 57.5545 21.7824 57.5902 21.6617C57.7482 21.1268 57.8793 20.6022 57.9732 20.0926C57.9836 20.0404 57.997 19.9868 58.006 19.9346C58.0507 19.6798 58.079 19.4324 58.1073 19.185C58.1192 19.0882 58.1371 18.9913 58.1461 18.8944C58.1774 18.5517 58.1937 18.2134 58.1937 17.8841H71.1376C69.8978 20.2103 67.5313 24.0431 64.5196 25.9878Z" fill="#5D62B5"/>
<path d="M50.7426 14.9022C50.7426 10.7937 47.4001 7.45117 43.2916 7.45117C39.1832 7.45117 35.8407 10.7937 35.8407 14.9022C35.8407 19.0106 39.1832 22.3531 43.2916 22.3531C47.4001 22.3531 50.7426 19.0106 50.7426 14.9022ZM38.8211 14.9022C38.8211 12.4374 40.8269 10.4316 43.2916 10.4316C45.3481 10.4316 47.0678 11.8353 47.5864 13.7294C47.1885 13.5327 46.7459 13.412 46.272 13.412C44.6254 13.412 43.2916 14.7457 43.2916 16.3923C43.2916 17.5592 43.9682 18.5576 44.9443 19.0479C44.4316 19.252 43.8758 19.3727 43.2916 19.3727C40.8269 19.3727 38.8211 17.3669 38.8211 14.9022Z" fill="#5D62B5"/>
<path d="M40.1223 44.0414C37.7365 42.7494 34.8038 42.9685 31.3913 44.6986C27.9191 46.4615 23.9328 47.8295 19.2059 48.8816L18.6411 49.0068C17.9527 49.1602 17.3685 49.6043 17.0422 50.2257C16.7158 50.8427 16.6771 51.5669 16.9364 52.2151C18.1807 55.3446 22.9985 65.5405 32.795 65.5867C32.9157 65.5956 33.1452 65.6105 33.4582 65.6105C34.9141 65.6105 38.1806 65.311 40.8674 62.8984C43.4663 60.5632 44.7837 56.9555 44.7837 52.1764L44.7747 52.0169C44.7479 51.78 44.1056 46.2022 40.1223 44.0414ZM38.8989 60.6586C36.4102 62.9162 33.0454 62.6152 33.02 62.6152L32.8621 62.6063C25.4543 62.6063 21.3742 54.9973 19.9764 51.7636C24.897 50.6609 29.074 49.2184 32.7429 47.3556C35.2166 46.0994 37.2194 45.8595 38.6932 46.6552C41.1222 47.9636 41.7273 51.7189 41.8033 52.2673C41.7854 56.1016 40.8093 58.924 38.8989 60.6586Z" fill="#5D62B5"/>
</g>
<defs>
<clipPath id="clip0_2801_398">
<rect width="76" height="76" fill="white" transform="translate(0 0.000244141)"/>
</clipPath>
</defs>
</svg>
