<svg width="76" height="76" viewBox="0 0 76 76" fill="none" xmlns="http://www.w3.org/2000/svg">
<g clip-path="url(#clip0_2801_362)">
<path d="M67.1321 8.49705V1.26691C67.1321 0.567399 66.5656 0.000244141 65.8654 0.000244141H25.3321C24.6326 0.000244141 24.0654 0.567399 24.0654 1.26691V8.54406L16.62 22.1935C16.5186 22.3797 16.4654 22.5881 16.4654 22.8002V49.4002H18.9988V23.1231L26.0848 10.1336H63.7316L57.1534 22.1935C57.0519 22.3797 56.9988 22.5881 56.9988 22.8002V68.4002H46.8654V70.9336H69.6654C73.1617 70.9292 75.995 68.0966 75.9988 64.6002V22.8002C75.9981 22.5597 75.9301 22.324 75.8015 22.1199L67.1321 8.49705ZM26.5988 7.60024V2.53358H64.5988V7.60024H26.5988ZM73.4654 64.6002C73.4654 66.6988 71.7646 68.4002 69.6654 68.4002H59.5321V23.1231L65.9495 11.3582L73.4654 23.1689V64.6002Z" fill="#5D62B5"/>
<path d="M18.2547 53.5323C17.6838 53.3128 17.0777 53.2002 16.466 53.2002C14.1566 53.2027 12.1403 54.7644 11.5608 57.0002H11.3993C8.6013 57.0002 6.33268 59.2688 6.33268 62.0669H5.06601C4.52112 62.0675 4.03746 62.4163 3.86552 62.9334L0.0655208 74.3334C-0.063125 74.7193 0.00181643 75.1436 0.239316 75.4739C0.477435 75.8041 0.859043 76.0002 1.26601 76.0002H44.3327C44.7396 76.0002 45.1219 75.8041 45.36 75.4739C45.5975 75.1436 45.6624 74.7193 45.5338 74.3334L41.7338 62.9334C41.5618 62.4163 41.0782 62.0675 40.5327 62.0669H39.266C39.266 59.2688 36.998 57.0002 34.1993 57.0002H34.0385C33.459 54.7644 31.4427 53.2027 29.1327 53.2002C28.5216 53.2002 27.9155 53.3128 27.3446 53.5323C26.5078 51.7814 24.7395 50.6675 22.7993 50.6675C20.8591 50.6675 19.0915 51.7814 18.2547 53.5323ZM39.6198 64.6002L42.5749 73.4669H3.02438L5.97952 64.6002H39.6198ZM25.3061 55.561C25.3395 56.0471 25.6487 56.4701 26.1008 56.6507C26.553 56.8313 27.0682 56.7367 27.4269 56.4077C28.1629 55.7212 29.2366 55.5387 30.1581 55.9426C31.0797 56.3471 31.6728 57.2606 31.666 58.2669C31.666 58.9664 32.2332 59.5335 32.9327 59.5335H34.1993C35.599 59.5335 36.7327 60.6678 36.7327 62.0669H8.86601C8.86601 60.6678 10.0003 59.5335 11.3993 59.5335H12.666C13.3661 59.5335 13.9327 58.9664 13.9327 58.2669C13.9277 57.2618 14.5202 56.3495 15.4406 55.9451C16.3609 55.5412 17.4339 55.723 18.1699 56.4077C18.5287 56.7367 19.0439 56.8313 19.496 56.6507C19.9481 56.4701 20.2567 56.0471 20.2901 55.561C20.3742 54.2374 21.4727 53.2064 22.7993 53.2064C24.126 53.2064 25.2244 54.2374 25.3092 55.561H25.3061Z" fill="#5D62B5"/>
<path d="M31.6654 30.4001H34.1988V32.9335H31.6654V30.4001Z" fill="#5D62B5"/>
<path d="M44.3321 30.4001H46.8654V32.9335H44.3321V30.4001Z" fill="#5D62B5"/>
<path d="M50.6327 15.5084L45.1269 20.2671H33.9903L28.0027 15.4781C27.4987 15.0742 26.7719 15.1151 26.3155 15.5715C24.8274 17.0571 24.0147 19.0888 24.0685 21.1905C24.1223 23.2927 25.0371 25.2799 26.5988 26.6876V40.5337C26.5988 47.5295 32.2703 53.2004 39.2654 53.2004C46.2612 53.2004 51.9321 47.5295 51.9321 40.5337V26.841C53.4425 25.4432 54.3467 23.511 54.4531 21.4564C54.5817 19.3084 53.8377 17.1987 52.3911 15.6055C51.9272 15.1045 51.1491 15.0612 50.6327 15.5084ZM26.608 21.287C26.5499 20.2151 26.8276 19.1526 27.4034 18.2465L31.3086 21.3717L28.0899 24.5891C27.2111 23.7046 26.6841 22.5307 26.608 21.287ZM39.2654 50.6671C37.8924 50.6671 36.7321 49.7969 36.7321 48.7671C36.7321 47.7373 37.8924 46.8671 39.2654 46.8671C40.6385 46.8671 41.7988 47.7373 41.7988 48.7671C41.7988 49.7969 40.6385 50.6671 39.2654 50.6671ZM49.3988 40.5337C49.3951 44.1773 47.4351 47.5375 44.2666 49.3361C44.3024 49.1481 44.3247 48.9582 44.3321 48.7671C44.1435 46.1509 41.8841 44.1735 39.2654 44.3337C36.6474 44.1735 34.388 46.1509 34.1988 48.7671C34.2068 48.9582 34.2291 49.1481 34.265 49.3361C31.0958 47.5375 29.1364 44.1773 29.1321 40.5337V27.1249L33.4566 22.8004H45.0749L47.6083 25.3337H45.5988C42.1012 25.3337 39.2654 28.1695 39.2654 31.6671C39.2654 35.1646 42.1012 38.0004 45.5988 38.0004H49.3988V40.5337ZM49.3988 35.4671H45.5988C43.5003 35.4671 41.7988 33.7656 41.7988 31.6671C41.7988 29.5685 43.5003 27.8671 45.5988 27.8671H49.3988V35.4671ZM50.5127 24.6559L47.4586 21.6024L51.2499 18.3238C51.7509 19.2379 51.9847 20.2751 51.9235 21.316C51.8548 22.5592 51.3557 23.7399 50.5127 24.6559Z" fill="#5D62B5"/>
<path d="M69.6654 55.7336H63.3321C62.6326 55.7336 62.0654 56.3008 62.0654 57.0003V62.067C62.0654 62.7665 62.6326 63.3336 63.3321 63.3336H69.6654C70.3656 63.3336 70.9321 62.7665 70.9321 62.067V57.0003C70.9321 56.3008 70.3656 55.7336 69.6654 55.7336ZM68.3988 60.8003H64.5988V58.267H68.3988V60.8003Z" fill="#5D62B5"/>
<path d="M62.0654 50.667H68.3988V53.2003H62.0654V50.667Z" fill="#5D62B5"/>
<path d="M62.0654 45.6003H70.9321V48.1337H62.0654V45.6003Z" fill="#5D62B5"/>
<path d="M46.8654 63.3335H54.4654V65.8668H46.8654V63.3335Z" fill="#5D62B5"/>
<path d="M46.8654 58.2668H54.4654V60.8002H46.8654V58.2668Z" fill="#5D62B5"/>
<path d="M62.0654 40.5337H70.9321V43.067H62.0654V40.5337Z" fill="#5D62B5"/>
<path d="M62.0654 35.4668H65.8654V38.0001H62.0654V35.4668Z" fill="#5D62B5"/>
<path d="M68.3988 35.4668H70.9321V38.0001H68.3988V35.4668Z" fill="#5D62B5"/>
<path d="M62.0654 22.8003H70.9321V25.3336H62.0654V22.8003Z" fill="#5D62B5"/>
<path d="M62.0654 27.8669H70.9321V30.4003H62.0654V27.8669Z" fill="#5D62B5"/>
</g>
<defs>
<clipPath id="clip0_2801_362">
<rect width="76" height="76" fill="white" transform="translate(0 0.000244141)"/>
</clipPath>
</defs>
</svg>
