<svg width="76" height="76" viewBox="0 0 76 76" fill="none" xmlns="http://www.w3.org/2000/svg">
<path d="M26.6 53.2002H19C18.3005 53.2002 17.7333 53.7674 17.7333 54.4669V62.0669C17.7333 62.7664 18.3005 63.3335 19 63.3335H26.6C27.2995 63.3335 27.8667 62.7664 27.8667 62.0669V54.4669C27.8667 53.7674 27.2995 53.2002 26.6 53.2002ZM25.3333 60.8002H20.2667V55.7335H25.3333V60.8002Z" fill="#5D62B5"/>
<path d="M44.3333 39.2668H31.6667C30.2676 39.2668 29.1333 40.4012 29.1333 41.8002V46.8668C29.1333 48.2659 30.2676 49.4002 31.6667 49.4002H44.3333C45.7324 49.4002 46.8667 48.2659 46.8667 46.8668V41.8002C46.8667 40.4012 45.7324 39.2668 44.3333 39.2668ZM44.3333 43.0668H39.2667V41.8002H44.3333V43.0668ZM36.7333 41.8002V43.0668H31.6667V41.8002H36.7333ZM31.6667 45.6002H36.7333V46.8668H31.6667V45.6002ZM39.2667 46.8668V45.6002H44.3333V46.8668H39.2667Z" fill="#5D62B5"/>
<path d="M69.5566 64.6876C69.2411 63.022 68.2714 61.5518 66.8631 60.6074C65.4554 59.6623 63.7279 59.3209 62.0667 59.6605V37.2582L64.3378 39.5293C65.8815 41.073 68.3852 41.073 69.9289 39.5293C71.4727 37.9855 71.4727 35.4819 69.9289 33.9381L62.0667 26.0759V10.1337C63.4657 10.1337 64.6 8.99938 64.6 7.60036V5.06702C64.6 3.668 63.4657 2.53369 62.0667 2.53369H49.4C48.001 2.53369 46.8667 3.668 46.8667 5.06702V7.60036C46.8667 8.99938 48.001 10.1337 49.4 10.1337V13.4092L40.6867 4.69593C39.1832 3.26104 36.8168 3.26104 35.3133 4.69593L6.07109 33.9381C4.52734 35.4819 4.52734 37.9855 6.07109 39.5293C7.61484 41.073 10.1185 41.073 11.6622 39.5293L13.9333 37.2582V63.8173C12.5541 62.2173 10.3232 61.6458 8.34466 62.3862C6.36549 63.1259 5.05739 65.0209 5.06667 67.1337C2.26862 67.1337 0 69.4023 0 72.2004C0 72.8999 0.567155 73.467 1.26667 73.467H74.7333C75.4328 73.467 76 72.8999 76 72.2004C75.995 68.4511 73.2613 65.2634 69.5566 64.6876ZM58.2568 62.119C58.2568 62.101 58.2667 62.0862 58.2667 62.067V54.467C58.2667 53.7675 57.6995 53.2004 57 53.2004H49.4C48.7005 53.2004 48.1333 53.7675 48.1333 54.467V62.067C48.1333 62.7665 48.7005 63.3337 49.4 63.3337H57C57.2307 63.3275 57.4552 63.257 57.6476 63.1296C57.227 63.9813 57.0056 64.9176 57 65.867V65.9938C54.518 66.5078 52.5803 68.4505 52.0725 70.9337H46.8667V51.9337C46.8667 51.2342 46.2995 50.667 45.6 50.667H30.4C29.7005 50.667 29.1333 51.2342 29.1333 51.9337V70.9337H21.4208C20.9563 68.2179 19.0618 65.9647 16.4667 65.0413V35.467H59.5333V60.8331C59.0478 61.198 58.618 61.631 58.2568 62.119ZM55.7333 55.7337V60.8004H50.6667V55.7337H55.7333ZM49.4 5.06702H62.0667V7.60036H49.4V5.06702ZM51.9333 10.1337H59.5333V23.5425L51.9333 15.9425V10.1337ZM9.87109 37.7381C9.31631 38.2929 8.41702 38.2929 7.86224 37.7381C7.30745 37.1833 7.30745 36.284 7.86224 35.7293L37.1044 6.48708C37.5992 5.99229 38.4008 5.99229 38.8956 6.48708L68.1378 35.7293C68.6925 36.284 68.6925 37.1833 68.1378 37.7381C67.583 38.2929 66.6837 38.2929 66.1289 37.7381L40.6867 12.2959C39.203 10.8122 36.797 10.8122 35.3133 12.2959L9.87109 37.7381ZM37.1044 14.0871C37.5992 13.5923 38.4008 13.5923 38.8956 14.0871L57.7422 32.9337H18.2578L37.1044 14.0871ZM2.87412 70.9337C3.54085 69.7852 4.98441 69.3497 6.175 69.9379C6.66175 70.1779 7.24684 70.0814 7.63031 69.6973C8.01439 69.3139 8.11087 68.7288 7.8709 68.242C7.69648 67.8981 7.60371 67.519 7.6 67.1337C7.59443 65.8973 8.48506 64.8397 9.7041 64.6344C10.9231 64.429 12.1113 65.1366 12.5108 66.3068C12.6945 66.8331 13.201 67.1782 13.7583 67.1553C13.8177 67.156 13.8764 67.1485 13.9333 67.1337C16.2428 67.1374 18.259 68.6985 18.8404 70.9337H2.87412ZM31.6667 70.9337V53.2004H44.3333V70.9337H31.6667ZM54.6831 70.9337C55.2027 69.4363 56.6035 68.4239 58.1881 68.4004C58.2314 68.4004 58.3576 68.4195 58.4009 68.4208C58.8017 68.4325 59.1851 68.2581 59.4393 67.9482C59.6917 67.6347 59.7795 67.2197 59.6762 66.8312C59.5865 66.5171 59.5389 66.193 59.5333 65.867C59.5333 63.7685 61.2348 62.067 63.3333 62.067C65.4319 62.067 67.1333 63.7685 67.1333 65.867C67.1333 66.5665 67.7005 67.1337 68.4 67.1337C70.7094 67.1374 72.7257 68.6985 73.3071 70.9337H54.6831Z" fill="#5D62B5"/>
<path d="M35.4667 57.0002H32.9333V59.5336H34.2V62.0669H32.9333V64.6003H35.4667C36.1662 64.6003 36.7333 64.0331 36.7333 63.3336V58.2669C36.7333 57.5674 36.1662 57.0002 35.4667 57.0002Z" fill="#5D62B5"/>
</svg>
