<svg width="76" height="76" viewBox="0 0 76 76" fill="none" xmlns="http://www.w3.org/2000/svg">
<g clip-path="url(#clip0_2801_8)">
<path d="M72.2 0.000244141H31.6666C31.4743 0.00362277 31.2853 0.0513019 31.1144 0.139577C21.0922 1.10871 13.2715 9.23699 12.6894 19.289C12.5769 21.7713 12.9204 24.2532 13.7028 26.6116C6.16097 26.8807 0.204177 33.1051 0.266631 40.6514C0.329086 48.1978 6.38808 54.3227 13.9333 54.4669H63.3333C66.1315 54.4669 68.4 56.7353 68.4 59.5336C68.4 62.3318 66.1315 64.6002 63.3333 64.6002H36.7333C36.7333 63.2011 35.5991 62.0669 34.2 62.0669H24.0666C22.6675 62.0669 21.5333 63.2011 21.5333 64.6002H18.4553C17.9423 64.5706 17.5047 64.2185 17.366 63.7237C16.4509 61.2155 14.0698 59.5432 11.4 59.5336H6.3333C2.83723 59.5378 0.00414942 62.3708 -3.83337e-05 65.8669V72.0609C-0.0243131 73.9518 1.3097 75.5883 3.16663 75.9458C3.37597 75.9806 3.58774 75.9988 3.79996 76.0002C4.80778 76.0002 5.77433 75.5999 6.48697 74.8872C7.19961 74.1746 7.59996 73.2081 7.59996 72.2002V67.1336L10.2739 67.1792C10.9006 70.1009 13.4785 72.191 16.4666 72.2002H21.5333C21.5333 73.5994 22.6675 74.7336 24.0666 74.7336H34.2C35.5991 74.7336 36.7333 73.5994 36.7333 72.2002H63.3333C70.3289 72.2002 76 66.5292 76 59.5336C76 52.538 70.3289 46.8669 63.3333 46.8669H13.9333C10.4355 46.8669 7.59996 44.0314 7.59996 40.5336C7.59996 37.0358 10.4355 34.2002 13.9333 34.2002H18.2197C18.2362 34.218 18.2501 34.237 18.2666 34.2547C22.0796 38.2818 27.3874 40.5541 32.9333 40.5336C41.7759 40.5336 47.975 36.7982 52.0752 34.3269L52.5818 34.0191C57.912 30.8208 70.4684 23.108 74.1886 20.8204C75.3175 20.1333 76.0046 18.9056 76 17.5841V3.80024C76 1.70156 74.2986 0.000244141 72.2 0.000244141V0.000244141ZM16.4666 69.6669C14.6765 69.6619 13.1315 68.411 12.754 66.6611C12.5276 65.4683 11.4867 64.6038 10.2726 64.6002H7.59996C6.20084 64.6002 5.06663 65.7345 5.06663 67.1336V72.2002C5.06631 72.5757 4.89946 72.9316 4.61111 73.172C4.32275 73.4125 3.9426 73.5126 3.57323 73.4454C2.94261 73.2882 2.5086 72.7104 2.5333 72.0609V65.8669C2.5333 63.7682 4.23461 62.0669 6.3333 62.0669H11.4C13.002 62.0724 14.4309 63.0753 14.9808 64.58C15.4717 66.0881 16.8694 67.1153 18.4553 67.1336H21.5333V69.6669H16.4666ZM43.0666 2.53358V3.80024C43.0666 4.4998 42.4995 5.06691 41.8 5.06691H34.2C33.5004 5.06691 32.9333 4.4998 32.9333 3.80024V2.55891C33.1132 2.55891 33.2892 2.53358 33.4704 2.53358H43.0666ZM24.0666 72.2002V64.6002H34.2V72.2002H24.0666ZM13.9333 31.6669C9.03637 31.6669 5.06663 35.6367 5.06663 40.5336C5.06663 45.4305 9.03637 49.4002 13.9333 49.4002H63.3333C68.9298 49.4002 73.4666 53.9371 73.4666 59.5336C73.4666 65.1301 68.9298 69.6669 63.3333 69.6669H36.7333V67.1336H63.3333C67.5307 67.1336 70.9333 63.7309 70.9333 59.5336C70.9333 55.3362 67.5307 51.9336 63.3333 51.9336H13.9333C7.63725 51.9336 2.5333 46.8296 2.5333 40.5336C2.5333 34.2375 7.63725 29.1336 13.9333 29.1336H14.6996C15.1364 30.0138 15.6377 30.8606 16.1994 31.6669H13.9333ZM73.4666 17.5841C73.4691 18.0235 73.2413 18.432 72.8662 18.6608C69.1473 20.9484 56.6022 28.6548 51.281 31.848L50.768 32.1558C46.9072 34.484 41.0716 38.0002 32.9333 38.0002C28.081 38.0004 23.4406 36.0122 20.0935 32.4991C16.7465 28.9859 14.9852 24.2547 15.2202 19.4081C15.7141 10.9778 22.0481 4.0471 30.4 2.79831V3.80024C30.4 5.89893 32.1013 7.60024 34.2 7.60024H41.8C43.8986 7.60024 45.6 5.89893 45.6 3.80024V2.53358H72.2C72.8995 2.53358 73.4666 3.10068 73.4666 3.80024V17.5841Z" fill="#5D62B5"/>
<path d="M67.1334 5.06689H50.6668C48.5681 5.06689 46.8668 6.76821 46.8668 8.8669V17.9502C46.8636 18.959 47.2646 19.927 47.9802 20.638L50.9721 23.6299C51.6886 24.342 52.6586 24.7407 53.6688 24.7382C54.2939 24.7392 54.9094 24.5847 55.4599 24.2886L68.9346 17.0331C70.1659 16.3703 70.9336 15.0849 70.9334 13.6866V8.8669C70.9334 6.76821 69.2321 5.06689 67.1334 5.06689ZM68.4001 13.6866C68.4003 14.1528 68.1444 14.5815 67.7338 14.8025L54.2578 22.058C53.7653 22.32 53.1597 22.2312 52.7631 21.8388L49.7713 18.847C49.5334 18.6092 49.3999 18.2865 49.4001 17.9502V8.8669C49.4001 8.16733 49.9673 7.60023 50.6668 7.60023H67.1334C67.833 7.60023 68.4001 8.16733 68.4001 8.8669V13.6866Z" fill="#5D62B5"/>
</g>
<defs>
<clipPath id="clip0_2801_8">
<rect width="76" height="76" fill="white" transform="translate(0 0.000244141)"/>
</clipPath>
</defs>
</svg>
